<svg width="149" height="40" viewBox="0 0 149 40" fill="none" xmlns="http://www.w3.org/2000/svg">
<path d="M139.208 22.16L141.96 12.304H148.104L142.44 28.784C140.872 33.232 138.536 35.312 134.536 35.312C132.712 35.312 131.176 34.8 130.376 34.224L131.592 29.712C132.136 30.16 132.84 30.512 133.704 30.512C134.568 30.512 135.144 30.128 135.592 28.944L129.832 12.304H136.52L139.144 22.16H139.208Z" fill="black"/>
<path d="M129.884 12.0801L129.564 18.5761C128.956 18.2881 128.124 18.0961 127.228 18.0961C125.564 18.0961 124.092 18.9921 124.092 21.4241V28.5921H117.628V12.3041H123.324L124.028 15.8241C124.668 13.1041 126.748 11.5041 129.884 12.0801Z" fill="black"/>
<path d="M114.582 17.5839V23.2159C114.582 23.9519 115.03 24.2399 115.542 24.2399C115.894 24.2399 116.118 24.1119 116.374 23.8879L116.566 27.9839C115.67 28.5599 114.486 28.9119 113.174 28.9119C111.606 28.9119 110.294 28.3679 109.494 27.4399C109.238 27.1519 109.014 26.8319 108.886 26.4479C108.214 27.9519 106.39 28.8799 104.214 28.8799C101.046 28.8799 98.9976 27.1519 98.9976 24.1119C98.9976 20.8799 101.878 19.1519 106.07 19.1519C106.838 19.1519 107.766 19.2159 108.31 19.2799V17.7439C108.31 16.8799 107.894 16.3999 107.094 16.3999C106.23 16.3999 105.686 17.0079 105.718 18.2559L99.8616 17.4879C100.118 14.1279 102.774 11.9199 107.35 11.9199C112.502 11.9199 114.582 14.1599 114.582 17.5839ZM108.31 22.9279V22.1599C108.15 22.1279 107.67 22.0639 107.35 22.0639C105.91 22.0639 105.174 22.6079 105.174 23.5679C105.174 24.3359 105.686 24.8479 106.582 24.8479C107.446 24.8479 108.31 24.3679 108.31 22.9279Z" fill="black"/>
<path d="M97.912 7.88799C97.912 10.032 96.152 11.12 94.296 11.12C92.472 11.12 90.712 10.032 90.712 7.88799C90.712 5.77599 92.472 4.68799 94.296 4.68799C96.152 4.68799 97.912 5.77599 97.912 7.88799ZM91.064 12.304H97.528V28.592H91.064V12.304Z" fill="black"/>
<path d="M78.3555 20.1119V21.5519C78.3555 23.4079 79.2515 24.3999 80.4995 24.3999C82.1635 24.3999 82.9315 22.9279 82.9315 20.4639C82.9315 18.1919 82.0355 16.9439 80.6275 16.9439C79.3155 16.9439 78.3555 18.1599 78.3555 20.1119ZM77.5555 12.3039L78.2915 15.2479C78.8995 13.2639 80.7555 11.9199 83.1235 11.9199C87.0595 11.9199 89.5875 15.2479 89.5875 20.1119C89.5875 25.7439 86.7075 28.9759 82.7395 28.9759C80.6915 28.9759 79.0915 28.0479 78.3555 26.7039V34.9279H71.8915V12.3039H77.5555Z" fill="black"/>
<path d="M59.296 13.9361L57.248 20.0801H61.408L59.36 13.9361H59.296ZM64.256 28.5921L63.008 24.8161H55.68L54.432 28.5921H48L55.712 7.21606H63.2L70.944 28.5921H64.256Z" fill="black"/>
<path d="M38.5481 20C38.5481 30.2438 30.2438 38.5481 20 38.5481C9.75617 38.5481 1.4519 30.2438 1.4519 20C1.4519 9.75617 9.75617 1.4519 20 1.4519C30.2438 1.4519 38.5481 9.75617 38.5481 20Z" fill="white"/>
<path fill-rule="evenodd" clip-rule="evenodd" d="M20 2.39553C10.2774 2.39553 2.39566 10.2773 2.39566 19.9999C2.39566 29.7225 10.2774 37.6042 20 37.6042C29.7226 37.6042 37.6044 29.7225 37.6044 19.9999C37.6044 10.2773 29.7226 2.39553 20 2.39553ZM0.508179 19.9999C0.508179 9.23485 9.23497 0.508057 20 0.508057C30.7651 0.508057 39.4918 9.23485 39.4918 19.9999C39.4918 30.7649 30.7651 39.4917 20 39.4917C9.23497 39.4917 0.508179 30.7649 0.508179 19.9999Z" fill="black"/>
<path d="M6.75134 6.75146H33.2486V33.2487H6.75134V6.75146Z" fill="white"/>
<path fill-rule="evenodd" clip-rule="evenodd" d="M31.3611 8.63894H8.63882V31.3613H31.3611V8.63894ZM6.75134 6.75146V33.2487H33.2486V6.75146H6.75134Z" fill="black"/>
<path fill-rule="evenodd" clip-rule="evenodd" d="M8.51748 6.98098L32.8067 31.7118L31.46 33.0343L7.17087 8.30356L8.51748 6.98098Z" fill="black"/>
<path d="M20.0364 13.9382L22.6829 15.4523L25.3174 16.9872L25.3294 20.0362L25.3174 23.0852L22.6829 24.6202L20.0364 26.1342L17.3898 24.6202L14.7553 23.0852L14.7433 20.0362L14.7553 16.9872L17.3898 15.4523L20.0364 13.9382Z" fill="black"/>
</svg>
