<svg width="252" height="80" viewBox="0 0 252 80" fill="none" xmlns="http://www.w3.org/2000/svg">
<g clip-path="url(#clip0_10_1152)">
<path fill-rule="evenodd" clip-rule="evenodd" d="M90.9352 42.6418L93.3789 35.8825L95.8236 42.6413L90.9352 42.6418ZM65.1513 42.6418L67.5951 35.8825L70.0398 42.6413L65.1513 42.6418ZM40.9956 38.7106L37.0654 38.7111L37.0649 32.719L40.9951 32.7187C43.3919 32.7185 44.3026 33.9166 44.3031 35.7383C44.3031 37.5119 43.3922 38.7104 40.9956 38.7106ZM97.4255 25H89.6167C89.0534 25 88.5489 25.3489 88.3499 25.8759L80.6319 46.3126L72.9082 25.8756C72.709 25.3487 72.2047 25 71.6417 25H63.8327C63.2696 25 62.7649 25.3489 62.566 25.8759L52.7614 51.838L48.2814 44.6063C51.3968 42.976 53.3132 39.9081 53.3132 35.7373C53.3121 28.9304 48.7113 24.9995 42.2408 25L29.2638 25.0019C28.516 25.0019 27.9099 25.6083 27.9099 26.356L27.913 53.0813C27.913 53.8293 28.5193 54.4354 29.2673 54.4354L35.7128 54.4347C36.4607 54.4345 37.0669 53.8283 37.0668 53.0804L37.0664 45.9976L39.2235 45.9973L43.7692 53.7642C44.0121 54.1792 44.4569 54.4343 44.9377 54.4343H59.9346C60.5058 54.4343 61.0157 54.0757 61.2089 53.538L62.4196 50.1679L72.7724 50.1668L73.9845 53.5384C74.1777 54.0757 74.6875 54.4343 75.2587 54.4343H85.7182C86.2895 54.4343 86.7995 54.0757 86.9927 53.5382L88.2036 50.1679L98.5562 50.1668L99.7684 53.5384C99.9617 54.0757 100.472 54.4343 101.042 54.4343H107.525C108.472 54.4343 109.127 53.4873 108.792 52.6016L98.692 25.8756C98.493 25.3487 97.9887 25 97.4255 25Z" fill="black"/>
<path d="M0.761166 51.6222C0.0190512 52.9077 0.946868 54.5143 2.43092 54.5143H12.6151C13.1665 54.5143 13.7087 54.311 14.0898 53.9127C14.713 53.261 14.8091 52.3027 14.3783 51.5566L7.58852 39.7966L0.761166 51.6222Z" fill="url(#paint0_linear_10_1152)"/>
<path d="M2.43092 25.0791C0.946868 25.0791 0.0190512 26.6859 0.761166 27.9712L7.58852 39.7966L14.3783 51.5567C14.7303 52.167 14.7303 52.9183 14.3783 53.5283L21.581 41.0529C21.8053 40.6642 21.9175 40.2305 21.9175 39.7968C21.9175 39.3629 21.8053 38.9292 21.581 38.5405L14.433 26.1599C14.0469 25.4912 13.3333 25.0791 12.5609 25.0791H2.43092Z" fill="white"/>
</g>
<path d="M136.506 44.2695C136.436 44.2031 136.389 44.125 136.365 44.0352C136.346 43.9453 136.348 43.8555 136.371 43.7656C136.395 43.6758 136.439 43.5977 136.506 43.5312L140.256 39.7754L136.506 36.0254C136.439 35.959 136.395 35.8809 136.371 35.791C136.352 35.7012 136.352 35.6113 136.371 35.5215C136.395 35.4316 136.439 35.3535 136.506 35.2871C136.572 35.2168 136.65 35.1719 136.74 35.1523C136.83 35.1289 136.92 35.1289 137.01 35.1523C137.104 35.1719 137.184 35.2168 137.25 35.2871L141 39.0371L144.75 35.2871C144.816 35.2168 144.895 35.1719 144.984 35.1523C145.074 35.1289 145.164 35.1289 145.254 35.1523C145.344 35.1719 145.424 35.2168 145.494 35.2871C145.561 35.3535 145.605 35.4316 145.629 35.5215C145.652 35.6113 145.652 35.7012 145.629 35.791C145.605 35.8809 145.561 35.959 145.494 36.0254L141.744 39.7754L145.494 43.5312C145.561 43.5977 145.604 43.6758 145.623 43.7656C145.646 43.8555 145.646 43.9453 145.623 44.0352C145.604 44.125 145.561 44.2031 145.494 44.2695C145.428 44.3398 145.348 44.3848 145.254 44.4043C145.164 44.4277 145.074 44.4277 144.984 44.4043C144.895 44.3809 144.816 44.3359 144.75 44.2695L141 40.5195L137.25 44.2695C137.184 44.3359 137.105 44.3809 137.016 44.4043C136.926 44.4277 136.836 44.4277 136.746 44.4043C136.656 44.3809 136.576 44.3359 136.506 44.2695Z" fill="black"/>
<path d="M238.359 0.222168C237.746 0.589875 237.174 1.12101 236.725 1.73385C236.357 2.26499 236.031 2.79612 235.826 3.40896C235.785 3.44982 235.785 3.53153 235.785 3.57239L235.663 3.81753L235.581 4.10352C235.132 5.45178 234.764 6.8409 234.478 8.31173C234.355 8.27087 234.274 8.27087 234.151 8.23002C233.661 8.1483 233.171 8.10745 232.68 8.10745C232.517 8.10745 232.353 8.10745 232.19 8.10745C231.577 8.10745 230.923 8.18916 230.229 8.4343C229.657 8.63858 229.085 8.88372 228.513 9.21057C228.513 9.16971 228.513 9.12886 228.513 9.088V9.04714C228.636 7.53546 228.104 6.14634 227.083 5.04322C226.388 4.3078 225.53 3.73582 224.55 3.44982C223.651 3.12297 222.711 3.04126 221.772 3.20468C220.587 3.36811 219.606 3.89924 218.871 4.71637L218.748 4.79808C218.135 5.20665 217.4 5.9012 216.91 7.12689C216.46 7.00433 215.97 6.96347 215.48 7.00432C215.03 7.00432 214.622 7.04518 214.213 7.12689C213.968 7.16775 213.641 7.24946 213.233 7.41289L213.028 7.4946L212.824 7.57631C211.353 8.23002 210.25 9.29228 209.596 10.6405C208.984 11.9071 208.861 13.2554 209.27 14.5219L208.575 14.3176L207.554 14.5219C207.472 14.5219 207.39 14.5628 207.308 14.5628C207.104 14.5219 206.9 14.481 206.655 14.4402L206.41 14.3993C205.47 14.3176 204.53 14.3993 203.591 14.6445C203.55 14.6445 203.509 14.6853 203.468 14.6853C203.305 13.9091 202.937 13.2145 202.447 12.6016C201.466 11.2942 199.954 10.5997 198.238 10.6814C197.789 10.6814 197.38 10.7223 196.972 10.804C196.727 10.8448 196.4 10.9265 195.991 11.09L195.787 11.1717L195.583 11.2534C194.194 11.8662 193.09 12.8468 192.478 14.1542C191.048 13.3371 189.74 12.7651 188.474 12.4382C187.411 12.1931 186.267 12.1114 185.083 12.2339C183.489 12.3974 182.018 13.1328 180.711 14.3176L180.67 14.195C178.668 16.0744 178.832 18.8935 178.872 19.7924V19.8332C178.872 19.9149 178.913 20.7321 178.382 23.6329V23.6737C178.178 24.8994 178.055 26.166 178.014 27.4734C177.974 28.2905 178.014 29.1485 178.096 30.0473C178.178 30.9462 178.3 31.845 178.464 32.703C178.75 33.9695 179.24 34.8684 179.812 35.5629L179.73 35.6855C179.199 36.5435 178.75 37.6466 178.3 39.2809C178.137 39.7711 178.014 40.3023 177.892 40.7925C177.769 41.3237 177.606 42.1408 177.361 43.3256V43.4482C177.156 44.5922 176.87 46.4307 176.421 49.0047C175.972 51.7012 175.686 54.5203 175.563 57.2577C175.236 64.2441 176.176 69.6371 178.464 73.6819C179.404 75.357 180.752 76.7053 182.427 77.7267L182.55 77.8084C184.02 78.6255 185.614 79.1975 187.289 79.4835H187.371C188.31 79.6469 189.25 79.7287 190.19 79.7287C192.682 79.7287 195.011 79.1567 197.135 77.9718L197.462 77.8084L198.484 76.9913C199.055 77.1956 199.627 77.3181 200.281 77.359C201.956 77.5224 203.591 77.2364 205.184 76.501C206.777 75.8473 208.166 74.785 209.27 73.4368C209.27 73.4368 209.27 73.4368 209.27 73.3959C210.536 75.071 212.252 75.7247 213.069 75.9699L213.519 76.0924L213.968 76.1333C214.213 76.1333 214.499 76.1742 214.744 76.1742C217.686 76.1742 220.464 75.1527 222.956 73.1508L223.161 72.9874L223.324 72.8239C224.55 71.5982 225.571 69.964 226.429 67.8395C228.104 69.7597 229.779 71.0263 231.414 71.7208L231.822 71.8842L232.272 71.966C234.396 72.3337 236.48 71.966 238.278 70.9445C239.422 70.3317 240.32 69.4329 240.811 68.3297C240.852 68.2889 240.852 68.2072 240.892 68.1663C241.056 68.0846 241.178 67.962 241.342 67.8395C242.159 67.1858 243.14 65.9601 243.262 63.8355L243.303 63.2227L243.14 62.6098C242.69 60.9347 242.036 59.2596 241.178 57.6662C240.402 56.1545 239.136 54.1117 237.379 51.4152C236.317 49.7401 235.581 48.5144 235.091 47.6156C235.295 47.1661 235.459 46.7576 235.622 46.3082L235.663 46.2264C235.99 45.3685 236.357 44.5105 236.807 43.6525C237.297 42.7128 237.91 41.6914 238.604 40.5883C239.34 39.4034 240.116 38.1369 240.892 36.8703C242.935 33.4384 244.161 30.6602 244.692 28.4131L244.774 28.0454V27.6776C244.855 25.9617 244.488 24.6543 243.997 23.6329C244.038 23.5512 244.12 23.4694 244.161 23.4286C244.651 22.7749 245.019 22.0395 245.182 21.3041C245.305 20.8546 245.387 20.3644 245.427 19.8332C245.468 19.4247 245.509 18.9752 245.509 18.485C245.509 18.1581 245.509 17.7904 245.55 17.341C245.713 14.6853 245.959 12.1522 246.285 9.78256L238.359 0.222168ZM206.165 24.2866V24.2457H206.205C206.165 24.2457 206.165 24.2866 206.165 24.2866Z" fill="black"/>
<path fill-rule="evenodd" clip-rule="evenodd" d="M227.573 32.8663L224.1 40.2613C223.324 38.5045 222.589 36.8702 221.894 35.2768C221.2 33.6426 220.382 32.0492 219.443 30.4966C218.789 29.4344 217.809 29.2301 216.542 29.9246C215.398 30.5375 214.499 31.4772 213.845 32.7437C213.11 34.1737 213.028 35.2768 213.519 36.0122C214.377 39.3216 215.235 41.9364 216.093 43.8567C216.624 44.9189 217.849 46.8392 219.811 49.6174C219.525 50.0668 218.871 51.2517 217.931 53.0902C217.523 53.8256 217.155 54.561 216.787 55.2556L216.011 56.6039C215.03 58.8918 214.172 61.0163 213.396 62.9774C213.151 63.5086 213.028 63.8354 212.947 64.0397C212.906 64.1623 212.865 64.2848 212.865 64.3257C212.865 64.3666 212.865 64.3666 212.824 64.3666L212.62 64.6526C212.334 64.9794 212.089 65.674 211.966 66.6954C211.476 69.6779 212.211 71.4756 214.213 72.0476C216.419 72.1701 218.503 71.4756 220.423 69.923C221.486 68.8199 222.425 67.1448 223.202 64.8568C223.569 63.8763 223.896 62.8957 224.223 61.8743C224.55 60.8529 224.918 59.8315 225.367 58.8101C226.674 61.2206 227.818 63.0183 228.758 64.2031C230.311 66.1234 231.7 67.3491 233.007 67.8802C234.233 68.0845 235.336 67.9211 236.316 67.3491C236.725 67.1448 237.011 66.8588 237.174 66.4911C237.338 66.1642 237.297 65.8374 237.011 65.5105C237.011 65.3063 237.093 65.1837 237.338 65.1428C237.583 65.1428 237.828 65.0611 238.073 64.9794C238.359 64.8977 238.604 64.7343 238.85 64.5708C239.095 64.4074 239.217 64.0397 239.217 63.5494C238.85 62.2012 238.318 60.8529 237.583 59.4638C236.848 58.0747 235.663 56.1136 233.947 53.4988C232.272 50.884 231.169 48.9229 230.556 47.6563C231.005 46.6758 231.455 45.6543 231.822 44.6738C232.19 43.6524 232.68 42.631 233.171 41.6096C233.743 40.5882 234.355 39.485 235.132 38.3002C235.867 37.1154 236.643 35.8897 237.379 34.664C239.176 31.6406 240.28 29.2301 240.688 27.3915C240.729 26.2067 240.484 25.3487 239.871 24.7767C239.299 24.2048 238.564 23.837 237.665 23.6736C235.949 23.3876 234.11 23.7553 232.149 24.7359C230.392 25.6756 228.758 27.3098 227.246 29.6386C226.92 30.9052 227.042 31.9675 227.573 32.8663ZM189.699 37.3196V37.2379C189.659 37.1971 189.618 37.1971 189.618 37.1562V37.1154L189.577 37.0745C189.577 37.0337 189.536 37.0337 189.536 37.0337V36.9928V36.9519C189.495 36.9519 189.454 36.9519 189.413 36.9111V36.8702C189.413 36.8294 189.373 36.8294 189.373 36.8294V36.7477L189.332 36.7068C189.332 36.6659 189.291 36.6659 189.291 36.6659V36.6251L189.087 36.4617L188.923 36.3391L188.474 36.094C188.392 36.094 188.392 36.094 188.351 36.0531C187.575 35.6854 186.717 35.6445 185.818 35.9714L185.532 36.0122L184.878 36.2982C184.592 36.4208 184.347 36.5842 184.143 36.7885C184.061 36.8702 183.979 36.9519 183.939 36.9928C183.857 36.9928 183.816 37.0337 183.775 37.1154L183.326 37.7691C183.04 38.2185 182.713 39.0765 182.386 40.2613C182.264 40.7107 182.141 41.1193 182.018 41.6096C181.896 42.0181 181.732 42.8353 181.528 43.9792C181.324 45.1232 181.038 46.9617 180.588 49.5357C180.18 52.1096 179.894 54.6836 179.771 57.3393C179.485 63.4677 180.262 68.2479 182.141 71.5573C182.713 72.6195 183.571 73.4367 184.633 74.0904C185.736 74.7032 186.921 75.1118 188.147 75.3569C190.802 75.8063 193.213 75.4386 195.297 74.2947L196.4 73.3958C197.871 72.2927 198.443 71.1896 198.157 70.1273C198.279 70.4542 198.361 70.8219 198.443 71.1896C198.769 72.4561 199.546 73.1098 200.731 73.1915C201.711 73.2733 202.692 73.1098 203.672 72.6604C204.694 72.2518 205.552 71.5981 206.246 70.781C206.982 69.923 207.227 68.9833 207.063 67.9619C206.982 62.8549 207.186 57.3801 207.635 51.4968C207.799 49.0046 208.003 46.7166 208.207 44.5921C208.412 42.4676 208.657 40.1387 208.861 37.5648C209.106 34.9908 209.147 33.3974 208.902 32.7846C208.698 32.0083 208.33 31.4772 207.799 31.1095C207.268 30.7418 206.655 30.5375 205.96 30.5375C205.306 30.5375 204.694 30.7418 204.04 31.1095C203.427 31.4772 202.896 32.0083 202.528 32.7437C200.894 32.5395 199.709 33.1114 198.892 34.4597C198.524 35.0317 198.238 35.7262 198.075 36.5434C197.911 37.3196 197.748 38.0551 197.585 38.7905C196.359 44.2244 194.97 49.2906 193.458 53.9482C191.538 59.9541 190.149 61.956 189.373 59.9949C188.596 57.135 188.719 52.9268 189.74 47.3295C190.68 42.0998 190.925 39.0356 190.394 38.1776L189.945 37.4831H189.904V37.4014C189.904 37.3605 189.863 37.3605 189.863 37.3605L189.699 37.3196ZM197.748 68.7382L197.789 68.9016V68.9425C197.748 68.9833 197.748 69.065 197.789 69.1468C197.748 68.9016 197.707 68.779 197.748 68.7382Z" fill="url(#paint1_linear_10_1152)"/>
<path d="M198.157 19.4656C197.585 19.3839 197.013 19.4656 196.441 19.7516C195.828 20.0376 195.46 20.4461 195.378 20.8956C195.133 21.5493 194.888 22.489 194.725 23.6738C194.316 26.0843 194.194 28.0454 194.275 29.5571C194.194 30.3742 194.398 30.9462 194.888 31.3139C195.092 31.4774 195.297 31.5591 195.542 31.5999C195.787 31.6408 196.032 31.6816 196.236 31.5999C196.482 31.5591 196.645 31.4774 196.849 31.3548C197.013 31.2322 197.135 31.1096 197.176 30.9462C197.217 30.7828 197.38 30.6602 197.666 30.5785C197.789 30.5377 197.912 30.4968 198.034 30.4559C198.484 30.2517 198.688 29.5571 198.606 28.2906C198.524 27.5143 198.565 26.166 198.729 24.2458C198.77 23.5104 198.851 22.7749 198.892 22.0395C198.974 21.3041 199.056 20.6913 199.096 20.201C199.096 19.8741 198.77 19.5881 198.157 19.4656Z" fill="white"/>
<path d="M191.007 17.7085C189.74 16.8914 188.555 16.3603 187.575 16.1151C186.962 15.9517 186.308 15.9517 185.573 16.0334C184.878 16.1151 184.184 16.4828 183.489 17.0957C183.081 17.4634 182.917 18.2805 182.999 19.4653C183.081 20.3642 182.876 21.9576 182.468 24.2864C182.304 25.3078 182.182 26.4109 182.182 27.5141C182.141 28.2086 182.182 28.9032 182.223 29.6386C182.264 30.374 182.386 31.0686 182.509 31.7631C182.631 32.4168 182.917 32.9071 183.367 33.2339C183.775 33.5608 184.266 33.7242 184.715 33.7651C185.205 33.8059 185.695 33.7242 186.104 33.4791C186.553 33.2339 186.839 32.8254 186.962 32.2534C188.106 32.2125 189.168 31.7223 190.19 30.7826C190.68 30.374 191.089 29.8837 191.497 29.3117C191.865 28.7397 192.192 28.1678 192.478 27.5549C192.764 26.9421 192.968 26.3292 193.131 25.6755C193.295 25.0218 193.417 24.409 193.417 23.7961C193.458 23.1424 193.417 22.5704 193.376 21.9576C193.213 19.9965 192.437 18.6074 191.007 17.7085ZM190.067 24.6132C189.985 25.4712 189.699 26.2066 189.25 26.9012C188.923 27.2689 188.596 27.7183 188.269 28.1678C187.943 28.6172 187.452 29.0666 186.839 29.5569L186.758 28.7806C186.758 28.4946 186.717 28.2495 186.717 28.0043C186.717 27.7592 186.717 27.4732 186.676 27.1872L186.717 25.1852L186.88 23.3058C186.921 22.8156 186.962 22.3661 186.921 21.8759C186.921 21.3856 186.962 20.8953 187.044 20.4459C187.493 20.6093 187.82 20.7319 188.065 20.8545C189.659 21.5082 190.312 22.7339 190.067 24.6132Z" fill="white"/>
<path d="M198.32 14.5217C198.116 14.5217 197.993 14.5217 197.871 14.5217C197.748 14.5626 197.544 14.6035 197.299 14.6852C196.727 14.9303 196.359 15.298 196.155 15.7474C195.95 16.1151 195.95 16.442 196.073 16.728C196.196 17.014 196.482 17.2183 196.931 17.3408C197.38 17.4634 197.912 17.3817 198.565 17.1366C199.178 16.728 199.505 16.3194 199.587 15.9109C199.668 15.5023 199.587 15.1754 199.342 14.9303C199.096 14.6035 198.77 14.4809 198.32 14.5217Z" fill="white"/>
<path d="M214.172 13.7048C214.622 13.8274 215.153 13.7457 215.807 13.5006C216.419 13.092 216.746 12.6834 216.828 12.2749C216.91 11.8663 216.828 11.5395 216.583 11.2943C216.379 10.9675 216.052 10.8449 215.602 10.8858C215.398 10.8858 215.276 10.8858 215.153 10.8858C215.03 10.9266 214.826 10.9675 214.581 11.0492C214.009 11.2943 213.641 11.662 213.437 12.1114C213.233 12.4792 213.233 12.806 213.355 13.092C213.437 13.378 213.723 13.5823 214.172 13.7048Z" fill="white"/>
<path d="M240.974 3.40894C240.607 3.49065 240.28 3.69493 240.035 4.02178C239.871 4.22606 239.749 4.43035 239.708 4.67548C239.626 4.87977 239.544 5.04319 239.503 5.20662C238.605 7.94399 238.033 10.9265 237.747 14.1542C237.624 15.5024 237.542 16.7281 237.501 17.8312C237.461 18.9344 237.42 19.8741 237.379 20.6503C237.379 21.2223 237.501 21.5083 237.828 21.59C237.951 21.6309 238.073 21.6309 238.196 21.6309C238.319 21.6309 238.441 21.6717 238.523 21.8352C238.645 22.3254 239.013 22.448 239.585 22.162C239.83 22.0394 240.075 21.876 240.361 21.6309C240.607 21.4266 240.852 21.1815 241.015 20.9363C241.179 20.6912 241.301 20.4869 241.383 20.2418C241.424 19.9966 241.465 19.7515 241.505 19.4246C241.546 19.1386 241.546 18.7709 241.546 18.4032C241.546 18.0355 241.587 17.5861 241.587 17.0958C241.832 12.9693 242.282 9.16968 242.895 5.73775L240.974 3.40894Z" fill="white"/>
<path d="M226.511 13.5002C226.511 13.255 226.47 13.0508 226.348 12.8465C226.225 12.6422 226.062 12.5196 225.817 12.5196C225.571 12.4788 225.367 12.4788 225.204 12.5196L224.918 12.5605C224.795 12.6013 224.673 12.6013 224.509 12.6013C224.264 12.683 224.06 12.7648 223.896 12.8056L223.651 12.8873C223.569 12.9282 223.488 12.969 223.365 13.0099C223.406 12.9282 223.406 12.8873 223.447 12.8465C223.488 12.8056 223.529 12.683 223.569 12.5196L223.937 11.0079C224.019 10.6811 224.06 10.4768 224.101 10.2725C224.141 10.0682 224.182 9.90481 224.223 9.78225C224.264 9.61882 224.305 9.49625 224.305 9.33283C224.346 9.1694 224.387 8.92426 224.387 8.59741C224.427 8.27056 224.305 7.94371 224.06 7.69857C223.815 7.45343 223.529 7.24915 223.202 7.16744C222.875 7.04487 222.589 7.00401 222.303 7.08572C222.017 7.12658 221.813 7.24915 221.772 7.45343C221.567 7.65771 221.404 7.82114 221.241 7.862C221.118 7.94371 220.995 7.98456 220.914 8.02542C220.75 8.14799 220.628 8.35227 220.546 8.76084L220.423 8.96512V9.04683C220.097 9.8231 219.933 10.7628 219.851 11.7433C219.811 12.1928 219.811 12.6013 219.811 13.0099C219.811 13.4185 219.811 13.827 219.811 14.2356C219.647 14.2764 219.565 14.3173 219.525 14.3582C219.525 14.3582 219.484 14.399 219.443 14.4399C219.402 14.4399 219.28 14.5216 219.034 14.6442C218.789 14.7667 218.503 14.9301 218.136 15.1753C217.972 15.2979 217.645 15.4613 217.278 15.6656C216.951 15.8698 216.746 16.1558 216.706 16.401C216.624 16.687 216.665 16.9321 216.746 17.1772C216.828 17.4224 216.992 17.5858 217.196 17.7492C217.4 17.9127 217.604 17.9535 217.85 17.9127C218.136 17.831 218.34 17.7492 218.544 17.5858C218.626 17.5041 218.83 17.4632 219.075 17.3815C218.912 20.2823 218.953 22.938 219.157 25.3077C219.157 25.5119 219.198 25.6754 219.361 25.7979C219.484 25.9205 219.729 26.0431 220.097 26.1248C220.423 26.2065 220.832 26.2474 221.322 26.1656C221.322 26.1656 221.404 26.1248 221.486 26.0839C221.608 26.0431 221.69 26.0022 221.813 25.9205C222.058 25.7162 222.303 24.5723 222.548 22.5703C222.63 21.9574 222.711 21.3446 222.752 20.6909C222.793 20.0372 222.875 19.4243 222.916 18.8115C222.997 18.1987 223.038 17.6267 223.079 17.1364C223.12 16.6053 223.202 16.1558 223.243 15.829L223.324 15.6656C223.815 15.543 224.591 15.1753 225.694 14.6033C225.939 14.5216 226.143 14.399 226.266 14.1539C226.47 13.9496 226.511 13.7453 226.511 13.5002Z" fill="white"/>
<path d="M236.276 16.5645C236.194 15.3797 236.071 14.4808 235.908 13.868C235.745 13.4186 235.54 13.0917 235.336 12.8874C235.05 12.6014 234.723 12.5606 234.396 12.7649C234.396 12.7649 234.396 12.7649 234.355 12.7649H234.274C234.192 12.438 233.906 12.1929 233.375 12.1112C233.171 12.0703 232.966 12.0703 232.721 12.0703C232.517 12.0703 232.313 12.0703 232.108 12.0703C231.945 12.0703 231.7 12.1112 231.496 12.1929C230.801 12.438 230.106 12.8057 229.453 13.4186C228.554 14.1948 227.818 15.0937 227.206 16.1151C226.674 17.0139 226.388 17.9536 226.307 19.0159C226.225 20.5684 226.47 21.7941 226.96 22.693C227.206 23.1424 227.614 23.4284 228.145 23.5918C228.676 23.7144 229.248 23.7552 229.82 23.6735C230.392 23.5918 230.964 23.4692 231.536 23.2241C232.108 23.0198 232.517 22.7747 232.762 22.5704C233.048 22.3661 233.252 22.2027 233.334 22.0801C233.416 21.9576 233.497 21.835 233.579 21.5898C233.579 21.9984 233.865 22.2435 234.437 22.3253C235.009 22.407 235.499 22.2844 235.99 21.9984C236.562 21.7124 236.766 21.3039 236.643 20.8544C236.562 20.3233 236.439 18.9342 236.276 16.5645ZM231.822 18.6482C231.741 18.9342 231.7 19.2202 231.659 19.4653C231.618 19.7105 231.536 19.9556 231.455 20.119C231.25 20.5276 230.842 20.7319 230.188 20.691C229.412 20.5684 229.289 20.0782 229.739 19.261C230.188 18.4848 230.883 17.7902 231.863 17.0956C231.822 17.4634 231.822 17.7902 231.782 18.0762C231.782 18.3622 231.781 18.6073 231.7 18.8116C231.741 18.7708 231.781 18.7299 231.822 18.6482Z" fill="white"/>
<path d="M215.439 15.8293C214.867 15.7476 214.295 15.8294 213.723 16.1153C213.11 16.4013 212.742 16.8099 212.661 17.2593C212.416 17.913 212.17 18.8527 212.007 20.0376C211.598 22.4481 211.476 24.4092 211.558 25.9209C211.476 26.738 211.68 27.31 212.17 27.6777C212.375 27.8411 212.579 27.9228 212.824 27.9637C213.069 28.0045 213.314 28.0454 213.519 27.9637C213.764 27.9228 213.927 27.8411 214.132 27.7186C214.295 27.596 214.418 27.4734 214.458 27.31C214.499 27.1466 214.663 27.024 214.949 26.9423C215.071 26.9014 215.194 26.8606 215.316 26.8197C215.766 26.6154 215.97 25.9209 215.888 24.6543C215.807 23.8781 215.848 22.5298 216.011 20.6095C216.052 19.8741 216.133 19.1387 216.174 18.4033C216.256 17.6679 216.338 17.055 216.379 16.5648C216.338 16.1971 216.011 15.9111 215.439 15.8293Z" fill="white"/>
<path d="M209.801 21.59C210.128 20.9363 210.168 20.2417 209.882 19.5472C209.596 18.8526 209.106 18.4032 208.452 18.1989C208.085 18.2806 207.84 18.5666 207.676 19.016C207.186 18.5666 206.655 18.2806 206.083 18.1989C205.633 18.1581 205.143 18.1989 204.653 18.3215C203.631 18.6075 202.773 19.1795 202.038 20.1192C200.976 21.4674 200.485 23.0608 200.69 24.8994C200.731 25.4305 200.853 25.9616 201.017 26.4519C201.18 26.9422 201.425 27.3507 201.67 27.6776C201.956 28.0044 202.242 28.2904 202.61 28.4539C202.978 28.6173 203.345 28.699 203.713 28.6173C204.122 28.5356 204.449 28.4947 204.775 28.4539C205.838 28.2496 206.573 27.7593 206.941 27.0239C206.777 27.8002 206.614 28.4539 206.369 28.9441C206.001 29.8838 205.593 30.4967 205.184 30.8235C204.98 31.0278 204.775 31.1504 204.612 31.273C204.489 31.3955 204.285 31.5589 203.999 31.7224C203.754 31.8858 203.386 31.9675 202.896 31.9675C202.447 31.8449 202.079 31.8041 201.834 31.8858C201.303 32.0492 201.057 32.4169 201.057 32.9889C201.057 33.4383 201.262 33.8469 201.629 34.1738C201.956 34.4597 202.406 34.6232 203.1 34.7457C204.898 34.8275 206.369 34.3372 207.594 33.2749C208.166 32.7846 208.657 32.1718 209.024 31.4364C209.433 30.701 209.678 30.0064 209.842 29.3118C210.005 28.6173 210.128 28.0453 210.25 27.5959C210.373 27.1465 210.454 26.6562 210.495 26.1659C210.618 24.6542 210.414 23.2242 209.882 21.9577C209.842 21.7126 209.801 21.6309 209.801 21.59ZM205.143 25.6756C204.898 25.8799 204.694 26.0433 204.449 26.1251C204.244 26.2068 204.04 26.1659 203.917 26.0433C203.795 25.9208 203.795 25.7165 203.877 25.4713C203.958 25.2262 204.081 24.9811 204.285 24.7768C204.489 24.5317 204.694 24.3274 204.98 24.1639C205.266 24.0005 205.47 23.9188 205.674 23.9188C205.879 23.9188 206.001 23.9597 206.042 23.9597C206.124 23.9597 206.165 23.9597 206.246 23.9597C206.246 24.0005 206.246 24.0414 206.246 24.0822C206.001 24.6951 205.633 25.2262 205.143 25.6756Z" fill="white"/>
<path d="M238.359 0.222168C238.155 0.549019 237.992 0.87587 237.869 1.24358C236.562 4.67551 238.278 8.51601 241.71 9.82341C243.262 10.3954 244.855 10.3954 246.326 9.86427L238.359 0.222168Z" fill="#5D5D5D"/>
<defs>
<linearGradient id="paint0_linear_10_1152" x1="11.5" y1="41.9994" x2="6.5" y2="46.5" gradientUnits="userSpaceOnUse">
<stop offset="0.388164" stop-color="white" stop-opacity="0"/>
<stop offset="0.509703" stop-color="white" stop-opacity="0.4"/>
<stop offset="1" stop-color="white"/>
</linearGradient>
<linearGradient id="paint1_linear_10_1152" x1="180.606" y1="39.2206" x2="241.891" y2="58.8317" gradientUnits="userSpaceOnUse">
<stop stop-color="#FFF385"/>
<stop offset="0.395" stop-color="#FFE600"/>
<stop offset="1" stop-color="#FFC300"/>
</linearGradient>
<clipPath id="clip0_10_1152">
<rect width="110" height="30" fill="white" transform="translate(0.5 25)"/>
</clipPath>
</defs>
</svg>
